# xmcd
#
# Track frame offsets: 
#        150
#        19525
#        40206
#        62681
#        108081
#        133177
#        187345
#        226724
#        274994
#
# Disc length: 4386 seconds
#
# Revision: 0
# Processed by: cddbd v1.5.2PL0 Copyright (c) Steve Scherf et al.
# Submitted via: ExactAudioCopy v0.99pb5
#
DISCID=78112009
DTITLE=Blues Traveler - 1989-11-02 New York, NY Disc 1
DYEAR=1989
DGENRE=Blues
TTITLE0=01 Dropping Some NYC
TTITLE1=02 Mulling It Over
TTITLE2=03 Gina
TTITLE3=04 Slow Change
TTITLE4=05 But Anyway
TTITLE5=06 Closing Down The Park
TTITLE6=07 Brother John
TTITLE7=08 Gloria
TTITLE8=09 Hard To Exist
EXTD=
EXTT0=
EXTT1=
EXTT2=
EXTT3=
EXTT4=
EXTT5=
EXTT6=
EXTT7=
EXTT8=
PLAYORDER=
